<svg aria-hidden="true" style="position: absolute; width: 0; height: 0; overflow: hidden" version="1.1"
        xmlns="http://www.w3.org/2000/svg"
        xmlns:xlink="http://www.w3.org/1999/xlink">
        <defs>

                <symbol id="calendar" viewBox="0 0 503.467 503.467">
                        <g transform="translate(1 1)">
                                <path fill="#F2EDDA" d="M412.867,327.533c-46.933,0-85.333,38.4-85.333,85.333c0,19.627,6.827,36.693,17.067,51.2H63
      c-14.507,0-25.6-11.093-25.6-25.6V139.8h426.667v204.8C449.56,334.36,431.64,327.533,412.867,327.533L412.867,327.533z" />
                                <path fill="#AAB1BA" d="M276.333,225.133h34.133V191h-34.133V225.133z M105.667,395.8H139.8v-34.133h-34.133V395.8z
      M105.667,310.467H139.8v-34.133h-34.133V310.467z M105.667,225.133H139.8V191h-34.133V225.133z M276.333,395.8h34.133v-34.133
      h-34.133V395.8z M276.333,310.467h34.133v-34.133h-34.133V310.467z M361.667,310.467H395.8v-34.133h-34.133V310.467z
      M361.667,225.133H395.8V191h-34.133V225.133z M191,395.8h34.133v-34.133H191V395.8z M191,310.467h34.133v-34.133H191V310.467z
      M191,225.133h34.133V191H191V225.133z" />
                                <path fill="#ECF4F7" d="M139.8,20.333v34.133c0,9.387-7.68,17.067-17.067,17.067c-4.267,0-8.533-1.707-11.947-5.12
      c-3.413-3.413-5.12-7.68-5.12-11.947V20.333c0-9.387,7.68-17.067,17.067-17.067c4.267,0,8.533,1.707,11.947,5.12
      C138.093,11.8,139.8,16.067,139.8,20.333z M395.8,20.333v34.133c0,9.387-7.68,17.067-17.067,17.067
      c-5.12,0-9.387-1.707-11.947-5.12c-3.413-3.413-5.12-7.68-5.12-11.947V20.333c0-9.387,7.68-17.067,17.067-17.067
      c5.12,0,9.387,1.707,11.947,5.12C394.093,11.8,395.8,16.067,395.8,20.333z M310.467,20.333v34.133
      c0,9.387-7.68,17.067-17.067,17.067c-5.12,0-9.387-1.707-11.947-5.12c-3.413-3.413-5.12-7.68-5.12-11.947V20.333
      c0-9.387,7.68-17.067,17.067-17.067c5.12,0,9.387,1.707,11.947,5.12C308.76,11.8,310.467,16.067,310.467,20.333z M225.133,20.333
      v34.133c0,9.387-7.68,17.067-17.067,17.067c-5.12,0-9.387-1.707-11.947-5.12C192.707,63,191,58.733,191,54.467V20.333
      c0-9.387,7.68-17.067,17.067-17.067c5.12,0,9.387,1.707,11.947,5.12C223.427,11.8,225.133,16.067,225.133,20.333z" />
                                <path fill="#FFD0A1" d="M498.2,105.667v307.2c0-28.16-13.653-52.907-34.133-68.267V139.8H37.4v298.667
      c0,14.507,11.093,25.6,25.6,25.6h281.6c15.36,20.48,40.107,34.133,68.267,34.133H37.4c-17.067,0-34.133-17.067-34.133-34.133
      v-358.4H498.2z" />
                                <path fill="#FF7474" d="M498.2,54.467v51.2H3.267v-51.2c0-17.067,17.067-34.133,34.133-34.133h68.267v34.133
      c0,4.267,1.707,8.533,5.12,11.947c3.413,3.413,7.68,5.12,11.947,5.12c9.387,0,17.067-7.68,17.067-17.067V20.333H191v34.133
      c0,4.267,1.707,8.533,5.12,11.947c3.413,3.413,7.68,5.12,11.947,5.12c9.387,0,17.067-7.68,17.067-17.067V20.333h51.2v34.133
      c0,4.267,1.707,8.533,5.12,11.947c3.413,3.413,7.68,5.12,11.947,5.12c9.387,0,17.067-7.68,17.067-17.067V20.333h51.2v34.133
      c0,4.267,1.707,8.533,5.12,11.947c3.413,3.413,7.68,5.12,11.947,5.12c9.387,0,17.067-7.68,17.067-17.067V20.333h68.267
      C481.133,20.333,498.2,37.4,498.2,54.467" />
                                <path fill="#ECF4F7" d="M464.067,344.6c20.48,15.36,34.133,40.107,34.133,68.267c0,46.933-38.4,85.333-85.333,85.333
      c-28.16,0-52.907-13.653-68.267-34.133c-11.093-14.507-17.067-32.427-17.067-51.2c0-46.933,38.4-85.333,85.333-85.333
      C431.64,327.533,449.56,334.36,464.067,344.6" />
                        </g>

                        <path fill="#51565F" d="M413.867,503.467c-49.493,0-89.6-40.107-89.6-89.6s40.107-89.6,89.6-89.6s89.6,40.107,89.6,89.6
    S463.36,503.467,413.867,503.467z M413.867,332.8c-44.373,0-81.067,36.693-81.067,81.067s36.693,81.067,81.067,81.067
    s81.067-36.693,81.067-81.067S458.24,332.8,413.867,332.8z M320,503.467H38.4c-19.627,0-38.4-18.773-38.4-38.4v-358.4
    c0-2.56,1.707-4.267,4.267-4.267h460.8c2.56,0,4.267,1.707,4.267,4.267s-1.707,4.267-4.267,4.267H8.533v354.133
    c0,14.507,15.36,29.867,29.867,29.867H320c2.56,0,4.267,1.707,4.267,4.267C324.267,501.76,322.56,503.467,320,503.467z
    M302.933,469.333H64c-16.213,0-29.867-13.653-29.867-29.867V140.8c0-2.56,1.707-4.267,4.267-4.267h426.667
    c2.56,0,4.267,1.707,4.267,4.267v162.133c0,2.56-1.707,4.267-4.267,4.267s-4.267-1.707-4.267-4.267V145.067H42.667v294.4
    c0,11.947,9.387,21.333,21.333,21.333h238.933c2.56,0,4.267,1.707,4.267,4.267C307.2,467.627,305.493,469.333,302.933,469.333z
    M465.067,418.133h-51.2c-2.56,0-4.267-1.707-4.267-4.267v-34.133c0-2.56,1.707-4.267,4.267-4.267s4.267,1.707,4.267,4.267V409.6
    h46.933c2.56,0,4.267,1.707,4.267,4.267C469.333,416.427,467.627,418.133,465.067,418.133z M294.4,401.067h-17.067
    c-2.56,0-4.267-1.707-4.267-4.267v-34.133c0-2.56,1.707-4.267,4.267-4.267H294.4c2.56,0,4.267,1.707,4.267,4.267
    s-1.707,4.267-4.267,4.267h-12.8v25.6h12.8c2.56,0,4.267,1.707,4.267,4.267S296.96,401.067,294.4,401.067z M226.133,401.067H192
    c-2.56,0-4.267-1.707-4.267-4.267v-34.133c0-2.56,1.707-4.267,4.267-4.267h34.133c2.56,0,4.267,1.707,4.267,4.267V396.8
    C230.4,399.36,228.693,401.067,226.133,401.067z M196.267,392.533h25.6v-25.6h-25.6V392.533z M140.8,401.067h-34.133
    c-2.56,0-4.267-1.707-4.267-4.267v-34.133c0-2.56,1.707-4.267,4.267-4.267H140.8c2.56,0,4.267,1.707,4.267,4.267V396.8
    C145.067,399.36,143.36,401.067,140.8,401.067z M110.933,392.533h25.6v-25.6h-25.6V392.533z M499.2,324.267
    c-2.56,0-4.267-1.707-4.267-4.267V55.467c0-14.507-15.36-29.867-29.867-29.867h-34.133c-2.56,0-4.267-1.707-4.267-4.267
    s1.707-4.267,4.267-4.267h34.133c19.627,0,38.4,18.773,38.4,38.4V320C503.467,322.56,501.76,324.267,499.2,324.267z
    M311.467,315.733h-34.133c-2.56,0-4.267-1.707-4.267-4.267v-34.133c0-2.56,1.707-4.267,4.267-4.267h34.133
    c2.56,0,4.267,1.707,4.267,4.267v34.133C315.733,314.027,314.027,315.733,311.467,315.733z M281.6,307.2h25.6v-25.6h-25.6V307.2z
    M226.133,315.733H192c-2.56,0-4.267-1.707-4.267-4.267v-34.133c0-2.56,1.707-4.267,4.267-4.267h34.133
    c2.56,0,4.267,1.707,4.267,4.267v34.133C230.4,314.027,228.693,315.733,226.133,315.733z M196.267,307.2h25.6v-25.6H196.267V307.2z
    M140.8,315.733h-34.133c-2.56,0-4.267-1.707-4.267-4.267v-34.133c0-2.56,1.707-4.267,4.267-4.267H140.8
    c2.56,0,4.267,1.707,4.267,4.267v34.133C145.067,314.027,143.36,315.733,140.8,315.733z M110.933,307.2h25.6v-25.6h-25.6V307.2z
    M396.8,298.667c-2.56,0-4.267-1.707-4.267-4.267v-12.8h-25.6v12.8c0,2.56-1.707,4.267-4.267,4.267s-4.267-1.707-4.267-4.267
    v-17.067c0-2.56,1.707-4.267,4.267-4.267H396.8c2.56,0,4.267,1.707,4.267,4.267V294.4C401.067,296.96,399.36,298.667,396.8,298.667z
    M396.8,230.4h-34.133c-2.56,0-4.267-1.707-4.267-4.267V192c0-2.56,1.707-4.267,4.267-4.267H396.8c2.56,0,4.267,1.707,4.267,4.267
    v34.133C401.067,228.693,399.36,230.4,396.8,230.4z M366.933,221.867h25.6v-25.6h-25.6V221.867z M311.467,230.4h-34.133
    c-2.56,0-4.267-1.707-4.267-4.267V192c0-2.56,1.707-4.267,4.267-4.267h34.133c2.56,0,4.267,1.707,4.267,4.267v34.133
    C315.733,228.693,314.027,230.4,311.467,230.4z M281.6,221.867h25.6v-25.6h-25.6V221.867z M226.133,230.4H192
    c-2.56,0-4.267-1.707-4.267-4.267V192c0-2.56,1.707-4.267,4.267-4.267h34.133c2.56,0,4.267,1.707,4.267,4.267v34.133
    C230.4,228.693,228.693,230.4,226.133,230.4z M196.267,221.867h25.6v-25.6h-25.6V221.867z M140.8,230.4h-34.133
    c-2.56,0-4.267-1.707-4.267-4.267V192c0-2.56,1.707-4.267,4.267-4.267H140.8c2.56,0,4.267,1.707,4.267,4.267v34.133
    C145.067,228.693,143.36,230.4,140.8,230.4z M110.933,221.867h25.6v-25.6h-25.6V221.867z M379.733,76.8
    c-11.947,0-21.333-9.387-21.333-21.333V21.333C358.4,9.387,367.787,0,379.733,0c11.947,0,21.333,9.387,21.333,21.333v34.133
    C401.067,67.413,391.68,76.8,379.733,76.8z M379.733,8.533c-6.827,0-12.8,5.973-12.8,12.8v34.133c0,6.827,5.973,12.8,12.8,12.8
    c6.827,0,12.8-5.973,12.8-12.8V21.333C392.533,14.507,386.56,8.533,379.733,8.533z M294.4,76.8
    c-11.947,0-21.333-9.387-21.333-21.333V21.333C273.067,9.387,282.453,0,294.4,0c11.947,0,21.333,9.387,21.333,21.333v34.133
    C315.733,67.413,306.347,76.8,294.4,76.8z M294.4,8.533c-6.827,0-12.8,5.973-12.8,12.8v34.133c0,6.827,5.973,12.8,12.8,12.8
    s12.8-5.973,12.8-12.8V21.333C307.2,14.507,301.227,8.533,294.4,8.533z M209.067,76.8c-11.947,0-21.333-9.387-21.333-21.333V21.333
    C187.733,9.387,197.12,0,209.067,0C221.013,0,230.4,9.387,230.4,21.333v34.133C230.4,67.413,221.013,76.8,209.067,76.8z
    M209.067,8.533c-6.827,0-12.8,5.973-12.8,12.8v34.133c0,6.827,5.973,12.8,12.8,12.8s12.8-5.973,12.8-12.8V21.333
    C221.867,14.507,215.893,8.533,209.067,8.533z M123.733,76.8c-11.947,0-21.333-9.387-21.333-21.333V21.333
    C102.4,9.387,111.787,0,123.733,0c11.947,0,21.333,9.387,21.333,21.333v34.133C145.067,67.413,135.68,76.8,123.733,76.8z
    M123.733,8.533c-6.827,0-12.8,5.973-12.8,12.8v34.133c0,6.827,5.973,12.8,12.8,12.8c6.827,0,12.8-5.973,12.8-12.8V21.333
    C136.533,14.507,130.56,8.533,123.733,8.533z M4.267,76.8C1.707,76.8,0,75.093,0,72.533V55.467c0-19.627,18.773-38.4,38.4-38.4
    h34.133c2.56,0,4.267,1.707,4.267,4.267S75.093,25.6,72.533,25.6H38.4c-14.507,0-29.867,15.36-29.867,29.867v17.067
    C8.533,75.093,6.827,76.8,4.267,76.8z" />
                </symbol>
                <symbol id="location" viewBox="0 0 512 512">
                        <circle fill="#40A459" cx="255.722" cy="256" r="255.445" />

                        <path fill="#378B4E" d="M255.722,0.555c-1.944,0-3.878,0.03-5.812,0.073c-0.492,0.011-0.983,0.022-1.474,0.037
    c-1.843,0.051-3.682,0.119-5.514,0.209c-0.474,0.023-0.945,0.056-1.418,0.081c-1.394,0.077-2.785,0.165-4.174,0.264
    c-0.699,0.05-1.397,0.098-2.094,0.153c-1.61,0.128-3.217,0.27-4.82,0.428c-0.829,0.082-1.654,0.173-2.479,0.262
    c-0.991,0.108-1.98,0.221-2.968,0.34c-0.856,0.103-1.714,0.202-2.567,0.313c125.334,16.327,222.126,123.498,222.126,253.282
    S347.737,492.953,222.403,509.28c0.854,0.111,1.71,0.211,2.567,0.313c0.987,0.119,1.977,0.232,2.968,0.34
    c0.826,0.09,1.652,0.181,2.479,0.262c1.603,0.158,3.209,0.3,4.82,0.428c0.696,0.056,1.395,0.104,2.094,0.153
    c1.388,0.099,2.779,0.188,4.174,0.264c0.473,0.027,0.945,0.058,1.418,0.081c1.833,0.09,3.672,0.158,5.514,0.209
    c0.491,0.014,0.982,0.026,1.474,0.037c1.932,0.043,3.868,0.073,5.812,0.073c141.079,0,255.445-114.367,255.445-255.445
    S396.801,0.555,255.722,0.555z" />

                        <path fill="#898790" d="M222.403,233.787l106.563-61.152c0,0,116.569,24.829,143.473-24.263l8.485-15.483l7.379,16.04
    c15.321,33.304,23.42,70.329,23.42,107.071c0,84.691-41.95,163.833-112.217,211.703l-7.25,4.94L222.403,233.787z" />

                        <path fill="#7A797F" d="M511.166,256c0-44.143-11.198-85.671-30.908-121.898l-7.82,14.269
    c-9.45,17.245-21.888,34.878-34.284,50.741c4.162,18.295,6.374,37.333,6.374,56.888c0,71.337-29.248,135.834-76.4,182.176
    l23.852,34.666C463.639,427.598,511.166,347.012,511.166,256z" />

                        <path fill="#3D9AE3" d="M255.722,512c-87.455,0-168.01-44.081-215.484-117.917l-4.527-7.04l142.267-119.937l163.74,230.122
    l-10.434,3.385C306.874,508.169,281.452,512,255.722,512z" />

                        <path fill="#1D81CE" d="M342.752,496.827l-17.317-24.795c-30.569,19.333-65.625,32.915-103.137,37.801
    c10.906,1.42,22.13,1.612,33.424,1.612C286.17,511.445,315.674,506.6,342.752,496.827z" />

                        <path fill="#FFFFFF" d="M177.978,267.106l44.425-33.319l170.805,238.278l-8.302,4.872
    c-11.729,6.884-24.073,12.861-36.69,17.766l-6.499,2.527L177.978,267.106z" />

                        <path fill="#E0E0E3" d="M341.718,497.229c18.2-6.475,35.457-14.944,51.49-25.164l-24.615-34.338
    c-13.395,13.232-28.248,24.992-44.293,35.023L341.718,497.229z" />

                        <path fill="#FFCE00" d="M31.37,379.188c-7.01-12.718-12.964-26.113-17.696-39.813l-2.112-8.059l299.691-208.592
    l44.425,33.319L35.712,387.042L31.37,379.188z" />

                        <path fill="#CD2900" d="M382.579,250.216c-15.713-16.41-94.094-100.753-94.094-149.704C288.485,45.089,333.575,0,388.997,0
    s100.512,45.089,100.512,100.512c0,48.918-78.382,133.287-94.095,149.704l0,0C391.917,253.87,386.077,253.871,382.579,250.216
    L382.579,250.216z" />

                        <path fill="#891D00" d="M388.997,134.386c-24.803,0-44.98-20.178-44.98-44.98s20.178-44.98,44.98-44.98
    c24.803,0,44.98,20.178,44.98,44.98S413.8,134.386,388.997,134.386z" />

                        <path fill="#FFFFFF" d="M144.659,186.586c29.088,0,52.755-23.666,52.755-52.755c0-4.6-3.729-8.33-8.33-8.33h-33.319
    c-4.6,0-8.33,3.729-8.33,8.33c0,4.6,3.729,8.33,8.33,8.33h24.018c-3.769,15.901-18.088,27.766-35.125,27.766
    c-19.902,0-36.095-16.193-36.095-36.095s16.193-36.095,36.095-36.095c8.8,0,17.275,3.202,23.865,9.015
    c3.452,3.044,8.715,2.713,11.757-0.736c3.043-3.45,2.713-8.714-0.736-11.757c-9.636-8.5-22.025-13.181-34.886-13.181
    c-29.088,0-52.755,23.666-52.755,52.755S115.57,186.586,144.659,186.586z" />
                </symbol>


                <symbol id="money" viewBox="0 -196 1416 1416">
                        <path fill="#9DBE87" d="M324.358919 22.140541H1361.643243c18.819459 0 33.210811 14.391351 33.210811 33.21081v645.396757c0 18.819459-14.391351 33.210811-33.210811 33.210811H324.358919c-18.819459 0-33.210811-14.391351-33.210811-33.210811V55.351351c0-18.819459 14.391351-33.210811 33.210811-33.21081z" />
                        <path fill="#131313" d="M1361.643243 756.099459H324.358919c-30.996757 0-55.351351-24.354595-55.351351-55.351351V55.351351c0-30.996757 24.354595-55.351351 55.351351-55.351351H1361.643243c30.996757 0 55.351351 24.354595 55.351352 55.351351v645.396757c0 29.88973-24.354595 55.351351-55.351352 55.351351zM324.358919 44.281081c-6.642162 0-11.07027 4.428108-11.07027 11.07027v645.396757c0 6.642162 4.428108 11.07027 11.07027 11.07027H1361.643243c6.642162 0 11.07027-4.428108 11.070271-11.07027V55.351351c0-6.642162-4.428108-11.07027-11.070271-11.07027H324.358919z" />
                        <path fill="#9DBE87" d="M230.261622 116.237838h1038.391351c18.819459 0 33.210811 14.391351 33.210811 33.210811v645.396756c0 18.819459-14.391351 33.210811-33.210811 33.210811H230.261622c-18.819459 0-33.210811-14.391351-33.210811-33.210811V149.448649c0-18.819459 14.391351-33.210811 33.210811-33.210811z" />
                        <path fill="#131313" d="M1267.545946 850.196757H230.261622c-30.996757 0-55.351351-24.354595-55.351352-55.351352V149.448649c0-30.996757 24.354595-55.351351 55.351352-55.351352h1038.391351c30.996757 0 55.351351 24.354595 55.351351 55.351352v645.396756c-1.107027 29.88973-25.461622 55.351351-56.458378 55.351352zM230.261622 138.378378c-6.642162 0-11.07027 4.428108-11.070271 11.070271v645.396756c0 6.642162 4.428108 11.07027 11.070271 11.070271h1038.391351c6.642162 0 11.07027-4.428108 11.07027-11.070271V149.448649c0-6.642162-4.428108-11.07027-11.07027-11.070271H230.261622z" />
                        <path fill="#9DBE87" d="M143.913514 208.121081h1038.391351c18.819459 0 33.210811 14.391351 33.210811 33.210811v645.396757c0 18.819459-14.391351 33.210811-33.210811 33.21081H143.913514c-18.819459 0-33.210811-14.391351-33.210811-33.21081V241.331892c0-17.712432 14.391351-33.210811 33.210811-33.210811z" />
                        <path fill="#131313" d="M1182.304865 942.08H143.913514c-30.996757 0-55.351351-24.354595-55.351352-55.351351V241.331892c0-30.996757 24.354595-55.351351 55.351352-55.351351h1038.391351c30.996757 0 55.351351 24.354595 55.351351 55.351351v645.396757c0 29.88973-25.461622 55.351351-55.351351 55.351351zM143.913514 230.261622c-6.642162 0-11.07027 4.428108-11.070271 11.07027v645.396757c0 6.642162 4.428108 11.07027 11.070271 11.07027h1038.391351c6.642162 0 11.07027-4.428108 11.07027-11.07027V241.331892c0-6.642162-4.428108-11.07027-11.07027-11.07027H143.913514z" />
                        <path fill="#9DBE87" d="M55.351351 290.041081h1038.391352c18.819459 0 33.210811 14.391351 33.210811 33.210811v645.396757c0 18.819459-14.391351 33.210811-33.210811 33.21081H55.351351c-18.819459 0-33.210811-14.391351-33.21081-33.21081V323.251892c0-17.712432 14.391351-33.210811 33.21081-33.210811z" />
                        <path fill="#131313" d="M1093.742703 1024H55.351351c-30.996757 0-55.351351-24.354595-55.351351-55.351351V323.251892c0-30.996757 24.354595-55.351351 55.351351-55.351351h1038.391352c30.996757 0 55.351351 24.354595 55.351351 55.351351v645.396757c0 30.996757-25.461622 55.351351-55.351351 55.351351zM55.351351 312.181622c-6.642162 0-11.07027 4.428108-11.07027 11.07027v645.396757c0 6.642162 4.428108 11.07027 11.07027 11.07027h1038.391352c6.642162 0 11.07027-4.428108 11.07027-11.07027V323.251892c0-6.642162-4.428108-11.07027-11.07027-11.07027H55.351351z" />
                        <path fill="#D6F0C5" d="M954.257297 902.227027H194.836757c0-52.03027-43.174054-95.204324-95.204325-95.204324V472.700541c52.03027 0 95.204324-43.174054 95.204325-95.204325h759.42054c0 52.03027 43.174054 95.204324 95.204325 95.204325v334.322162c-53.137297 0-95.204324 43.174054-95.204325 95.204324z" />
                        <path fill="#131313" d="M954.257297 924.367568H194.836757c-12.177297 0-22.140541-9.963243-22.140541-22.140541 0-39.852973-33.210811-73.063784-73.063784-73.063784-12.177297 0-22.140541-9.963243-22.14054-22.14054V472.700541c0-12.177297 9.963243-22.140541 22.14054-22.140541 39.852973 0 73.063784-33.210811 73.063784-73.063784 0-12.177297 9.963243-22.140541 22.140541-22.14054h759.42054c12.177297 0 22.140541 9.963243 22.140541 22.14054 0 39.852973 33.210811 73.063784 73.063784 73.063784 12.177297 0 22.140541 9.963243 22.14054 22.140541v334.322162c0 12.177297-9.963243 22.140541-22.14054 22.14054-39.852973 0-73.063784 33.210811-73.063784 73.063784 0 12.177297-9.963243 22.140541-22.140541 22.140541z m-739.494054-44.281082h718.460541c8.856216-46.495135 46.495135-84.134054 92.99027-92.99027V492.627027c-46.495135-8.856216-84.134054-46.495135-92.99027-92.99027H214.763243c-8.856216 46.495135-46.495135 84.134054-92.99027 92.99027V785.989189c46.495135 9.963243 84.134054 47.602162 92.99027 94.097297z" />
                        <path fill="#131313" d="M576.761081 790.417297c-35.424865 0-73.063784-13.284324-99.632432-47.602162-7.749189-9.963243-5.535135-23.247568 3.321081-30.996757 9.963243-7.749189 23.247568-5.535135 30.996756 3.321081 26.568649 34.317838 67.528649 35.424865 94.097298 26.568649 22.140541-7.749189 35.424865-22.140541 35.424865-37.638919 0-14.391351-34.317838-24.354595-64.207568-33.210811-46.495135-14.391351-105.167568-30.996757-105.167567-86.348108 0-26.568649 16.605405-50.923243 45.388108-65.314594 35.424865-17.712432 95.204324-24.354595 151.662702 16.605405 9.963243 7.749189 12.177297 21.033514 4.428108 30.996757-7.749189 9.963243-21.033514 12.177297-30.996756 4.428108-37.638919-27.675676-79.705946-26.568649-105.167568-13.284324-13.284324 6.642162-22.140541 16.605405-22.14054 26.568648 0 21.033514 30.996757 30.996757 73.063783 44.281081 45.388108 13.284324 95.204324 28.782703 95.204325 75.277838 0 34.317838-25.461622 65.314595-65.314595 79.705946-11.07027 3.321081-26.568649 6.642162-40.96 6.642162z" />
                        <path fill="#131313" d="M574.547027 549.085405c-12.177297 0-22.140541-9.963243-22.140541-22.14054v-48.709189c0-12.177297 9.963243-22.140541 22.140541-22.140541s22.140541 9.963243 22.140541 22.140541v48.709189c0 13.284324-9.963243 22.140541-22.140541 22.14054z" />
                        <path fill="#131313" d="M574.547027 832.484324c-12.177297 0-22.140541-9.963243-22.140541-22.14054v-36.531892c0-12.177297 9.963243-22.140541 22.140541-22.140541s22.140541 9.963243 22.140541 22.140541v36.531892c0 12.177297-9.963243 22.140541-22.140541 22.14054z" />
                        <path fill="#AECD99" d="M285.612973 653.145946m-40.96 0a40.96 40.96 0 1 0 81.92 0 40.96 40.96 0 1 0-81.92 0Z" />
                        <path fill="#131313" d="M285.612973 715.139459c-34.317838 0-63.100541-27.675676-63.100541-63.10054s27.675676-63.100541 63.100541-63.100541c34.317838 0 63.100541 27.675676 63.100541 63.100541s-28.782703 63.100541-63.100541 63.10054z m0-80.812973c-9.963243 0-18.819459 7.749189-18.819459 18.81946s7.749189 18.819459 18.819459 18.819459c9.963243 0 18.819459-7.749189 18.819459-18.819459s-8.856216-18.819459-18.819459-18.81946z" />
                        <path fill="#AECD99" d="M865.695135 653.145946m-40.96 0a40.96 40.96 0 1 0 81.92 0 40.96 40.96 0 1 0-81.92 0Z" />
                        <path fill="#131313" d="M865.695135 715.139459c-34.317838 0-63.100541-27.675676-63.10054-63.10054s27.675676-63.100541 63.10054-63.100541c34.317838 0 63.100541 27.675676 63.100541 63.100541s-28.782703 63.100541-63.100541 63.10054z m0-80.812973c-9.963243 0-18.819459 7.749189-18.819459 18.81946s7.749189 18.819459 18.819459 18.819459 18.819459-7.749189 18.81946-18.819459-8.856216-18.819459-18.81946-18.81946z" />
                </symbol>

                <symbol id="party" viewBox="0 0 128 128">
                        <path fill="#ffc107" d="M7.45 123.27c2.27 2.46 11.62-1.83 19-5.27c5.53-2.57 27.66-11.65 38.66-16.36c2.97-1.27 7.29-2.93 10.4-7.02c2.76-3.64 10.08-19.1-4.66-34.76c-14.96-15.9-30.37-11.51-36.13-7.43c-3.39 2.4-6.15 7.81-7.39 10.56c-5.24 11.62-12.71 32.91-15.75 41.28c-2.23 6.17-6.38 16.56-4.13 19z" />
                        <path fill="#ff8f00" d="M25.85 66.49c.14 1.74.49 4.57 1.69 10.02c.82 3.74 2.16 7.66 3.25 10.25c3.27 7.79 7.86 10.93 12.51 13.45c7.9 4.28 13.27 5.08 13.27 5.08l-6.44 2.63s-3.9-.81-9.22-3.43c-5.07-2.5-10.35-6.73-14.21-15.01c-1.67-3.59-2.64-7.07-3.2-9.83c-.69-3.42-.8-5.36-.8-5.36l3.15-7.8z" />
                        <path fill="#ff8f00" d="M17.94 86.77s.8 6.49 6.16 14.68c6.28 9.58 15.05 11.15 15.05 11.15l-5.83 2.4s-6.51-1.99-12.7-10.44c-3.86-5.27-4.94-11.57-4.94-11.57l2.26-6.22z" />
                        <path fill="#ff8f00" d="M12.39 102.15s1.46 5.6 4.66 9.78c3.81 4.99 8.66 6.44 8.66 6.44l-4.47 1.98s-3.39-.71-7.1-5.41c-2.82-3.57-3.62-7.67-3.62-7.67l1.87-5.12z" />
                        <path fill="#fffde7" opacity=".44" d="M9.96 116.37c-.2-.45-.2-.96.01-1.4l25.47-52.82l4.19 15.75l-26.8 38.71c-.72 1.08-2.34.94-2.87-.24z" />

                        <defs>
                                <linearGradient id="party" gradientUnits="userSpaceOnUse" x1="74.384" y1="61.839" x2="44.617" y2="79.699">
                                        <stop offset=".024" stop-color="#8f4700" />
                                        <stop offset="1" stop-color="#703e2d" />
                                </linearGradient>
                        </defs>

                        <path fill="url(#party-popper-gradient)" d="M41.65 83.19c11.9 13.92 25.45 12.18 29.96 8.66c4.52-3.53 8.09-15.66-3.76-29.35c-12.42-14.34-26.48-10.25-29.73-7.15s-7.39 15.07 3.53 27.84z" />
                        <path fill="#03a9f4" d="M82.52 88.92c-4.34-3.64-6.65-2.99-9.75-1.7c-4 1.66-10.29 2.89-18.83 0l2.57-6.19c5.07 1.71 8.74.88 11.91-.99c4.08-2.4 9.66-5.69 18.34 1.6c3.62 3.04 7.33 5.06 10.05 4.14c1.98-.66 3.03-3.61 3.56-5.96c.05-.21.13-.81.19-1.34c.48-3.67 1.28-11.59 7.18-15.64c6.31-4.33 12.94-4.33 12.94-4.33l1.2 11.92c-3.05-.45-5.17.17-6.96 1.16c-6.74 3.75-.87 18.15-11.36 22.99c-10.09 4.69-18.34-3.4-21.04-5.66z" />
                        <path fill="#f44336" d="M45.4 73.72l-4.34-3.89c7.97-8.9 5.87-15.44 4.34-20.2c-.31-.96-.6-1.87-.79-2.74c-.68-3.08-.82-5.76-.61-8.1c-3.06-3.81-4.41-7.8-4.5-8.07c-1.86-5.63-.46-11.12 2.75-16.27C48.74 4 60.49 4 60.49 4l3.92 10.49c-2.98-.12-12.75.03-15.75 4.76c-3.79 5.96-1.3 9.64-1.12 10.06c.73-.95 1.47-1.71 2.13-2.3c4.79-4.25 8.95-4.86 11.6-4.62c2.98.27 5.68 1.77 7.61 4.23c2.11 2.7 2.98 6.21 2.31 9.4c-.65 3.11-2.72 5.74-5.83 7.41c-5.43 2.92-9.95 2.52-12.98 1.51c.02.07.03.15.05.22c.11.5.33 1.2.59 2.01c1.77 5.48 5.06 14.18-7.62 26.55zm7.35-37.53c.58.42 1.19.77 1.82 1.02c2.1.84 4.39.56 6.99-.84c1.53-.82 1.71-1.7 1.77-1.99c.18-.87-.12-1.98-.77-2.81c-.57-.73-1.23-1.11-2.02-1.19c-1.5-.13-3.53.82-5.56 2.63c-.97.87-1.71 1.94-2.23 3.18z" />
                        <path fill="#f48fb1" d="M62.77 75.35l-6.21-.17s2.95-16.66 12.5-19.46c1.79-.52 3.75-1.05 5.72-1.34c1.17-.18 3.02-.45 3.93-.79c.21-1.57-.45-3.57-1.19-5.84c-.58-1.76-1.18-3.57-1.5-5.55c-.62-3.86.41-7.27 2.9-9.62c3.04-2.85 7.95-3.76 13.49-2.5c3.16.72 5.49 2.27 7.54 3.63c2.93 1.95 4.64 2.94 8.22.53c4.33-2.92-1.33-14.35-4.34-20.95l11.23-4.68c1.51 3.3 8.8 20.28 3.99 29.97c-1.62 3.26-4.41 5.42-8.07 6.23c-7.96 1.78-12.62-1.32-16.02-3.58c-1.61-1.07-3.02-1.91-4.55-2.35c-10.63-3.03 4.21 12.61-2.74 19.64c-4.17 4.21-14.36 5.32-15.02 5.48c-6.56 1.58-9.88 11.35-9.88 11.35z" />
                        <path fill="#c92b27" d="M43.99 38.79c-.19 2.2-.28 3.51.29 6.37c2.75 2.02 8.74 2.02 8.74 2.02c-.26-.81-.49-1.51-.59-2.01c-.02-.07-.03-.15-.05-.22c-6.09-3.04-8.39-6.16-8.39-6.16z" />
                        <path fill="#ffc107" d="M31.53 48.64l-10.34-5.07l5.15-7.44l8.11 5.37z" />
                        <path fill="#fb8c00" d="M16.29 34.6c-5.28-.71-10.66-5.19-11.25-5.7l5.19-6.09c1.57 1.33 4.9 3.56 7.13 3.86l-1.07 7.93z" />
                        <path fill="#03a9f4" d="M25.61 21.27l-7.6-2.49c.87-2.66 1.1-5.53.65-8.3l7.9-1.27c.65 4.02.32 8.19-.95 12.06z" />
                        <path fill="#fb8c00" d="M73.073 15.325l7.815-1.71l2.257 10.316l-7.815 1.71z" />
                        <path fill="#ffc107" d="M92.46 17.77l-5.5-5.81c2.88-2.73 3.54-6.3 3.54-6.34l7.9 1.29c-.1.63-1.11 6.29-5.94 10.86z" />
                        <path fill="#fb8c00" d="M95.516 48.581l6.987-2.183l2.387 7.636l-6.987 2.183z" />
                        <path fill="#f44336" d="M97.55 113.03l-7.95-.94c.34-2.83-1.77-6.3-2.35-7.07l6.4-4.8c.48.63 4.65 6.4 3.9 12.81z" />
                        <path fill="#fb8c00" d="M120.37 102.89c-2.99-.45-6.05-.63-9.07-.52l-.27-8c3.51-.12 7.06.08 10.53.61l-1.19 7.91z" />
                        <path fill="#f48fb1" d="M109.614 113.902l5.62-5.693l7.736 7.637l-5.621 5.693z" />
                        <path fill="#f44336" d="M93.099 63.331l5.78 6.609l-6.609 5.78l-5.78-6.609z" />
                </symbol>
        </defs>
</svg>