<svg xmlns="http://www.w3.org/2000/svg" width="523.859" height="684.062" aria-label="Herb Żar">
    <path d="M57.5234 25.848C107.059 13.539 178.336 3.31201 258.832 0 335.078 1.94098 403.98 9.50403 462.59 24.695c1.871 47.66 23.324 81.863 61.269 102.528-15.336 74.085-19.941 148.894-5.972 223.773 3.527 40.965 4.75 81.285 2.375 122.254-11.301 69.765-38.52 122.902-95.903 149.039-66.453 37.293-121.316 30.527-164.445 61.773-65.879-41.613-97.848-21.238-183.383-74.804-80.8552-60.84-80.6365-173.016-71.2771-255.957C17.6367 277.918 16.0508 203.398 0 129.238c35.4218-17.711 55.1484-49.68 57.5273-103.39" style="stroke:none;fill-rule:evenodd;fill:#222"/>
    <path d="M183.809 287.207H336.59c-.285 50.469-23.399 89.855-76.75 114.336-53.637-24.981-76.102-64.512-76.031-114.336m31.609 5.398-16.629 24.84 38.156 64.293 23.039-36.285 23.039 37.223 40.391-68.039-16.918-23.325-22.82 36.719-22.606-36.719-22.39 36.719-23.254-35.422" style="stroke:none;fill-rule:evenodd;fill:#11b1ee"/>
    <path d="m100.289 423.43 129.383 155.156-9.719 8.855L90.426 431.203c2.734-3.168 6.047-5.758 9.863-7.773m8.211-15.622c-15.262-11.804-32.543-20.015-50.7578-26.636 3.5273 20.59 8.6368 40.101 16.9178 57.383 3.238-3.887 1.942-13.247 5.543-17.422-5.039-6.118-9.141-13.176-10.871-22.317-2.949-4.461-5.9727-9.14-8.5664-13.965 4.5354 3.672 8.8554 7.485 13.3904 11.446 6.766 3.597 13.102 7.773 18.504 14.687 3.887-3.886 12.527-.07 15.84-3.168zm-19.152 21.598c2.879-2.805 5.972-5.324 9.214-7.414-7.343-11.949-16.414-19.148-26.351-23.758 1.367 10.223 6.551 20.59 17.133 31.176zm113.543 111.961 17.781-3.023 7.055 7.847-18.719 2.735zm8.136 10.008 18.645-2.734 6.476 7.558-19.007 2.734-6.118-7.558zm8.133 9.863 18.789-3.023 6.91 7.847-19.437 2.735zm-31.246-7.414-6.695 18.574 6.765 7.27 6.336-18.215zm8.352 10.078-6.407 17.926 6.621 7.27 6.192-18.071zm8.281 9.434-6.262 17.781 6.766 7.559 5.902-18.215zm-38.879-158.762 8.926-28.582 11.156 28.149 26.637-3.887-15.262 20.949 20.016 20.949-29.231-3.527-8.492 27.933-11.375-28.367-29.445 7.2 17.925-23.758-19.871-21.168 29.016 4.101zm8.781 25.922 2.879 23.902c.43 1.078 1.223 1.149 2.445.36l-.429-24.84c-1.223-3.094-4.606-2.949-4.895.574zm12.387-5.977 20.519 11.661c.719.863.43 1.582-.789 2.3l-22.535-9.863c-2.156-2.519-.504-5.469 2.805-4.102zm-5.258-8.929 21.527-10.438c1.149-.14 1.653.504 1.512 1.942l-21.168 13.031c-3.238.43-4.82-2.52-1.871-4.535m-4.031-2.375-1.367-23.903c-.504-1.078-1.293-1.148-2.446-.359l-1.148 24.766c1.223 3.168 4.605 3.093 4.965-.504zm-8.352 2.808-21.527-11.015c-1.148-.141-1.652.504-1.438 1.941l21.094 13.606c3.309.429 4.895-2.52 1.871-4.536zm-2.593 7.489-19.653 15.191c-.574 1.008-.215 1.727 1.149 2.156l21.886-13.75c1.797-2.804-.285-5.468-3.382-3.597m-93.743 60.55 1.149-29.949 18.14 24.262 24.622-10.727-9.215 24.192 24.839 14.972-29.156 4.317-.933 29.156-18.36-24.406-27.07 13.82 11.59-26.781-24.6955-15.262 29.0855-3.598zm15.262 22.754 9.07 22.606c.719.863 1.512.789 2.375-.285l-6.839-24.192c-2.016-2.66-5.254-1.652-4.606 1.871m10.367-9.074 23.039 5.902c.934.645.864 1.438-.215 2.375l-24.476-3.597c-2.734-1.797-1.942-5.11 1.652-4.68m-7.414-7.269 17.781-15.911c1.079-.429 1.727.071 1.942 1.438l-16.703 18.43c-3.024 1.293-5.399-1.223-3.024-3.957zm-4.535-1.227-7.559-22.68c-.718-.863-1.511-.789-2.445.285l5.399 24.262c2.015 2.66 5.253 1.727 4.605-1.871zm-7.273 4.898-23.4692-4.679c-1.1484.14-1.5117.933-.9336 2.23l23.7578 7.344c3.309-.43 4.031-3.742.645-4.895m-.575 7.918-14.7574 19.223c-.2852 1.078.2851 1.727 1.7264 1.797l17.277-18.359c.934-3.239-1.726-5.254-4.246-2.661m406.293-115.414c6.407 12.309 9.286 24.766 6.192 37.942-5.254 9.644-12.813 18.215-28.438 23.109-5.468 1.223-7.918.141-9.07-2.086-8.637-5.758-13.535-6.98-19.797-8.422-7.773-1.222-14.613.071-23.254 2.231-12.742.574-27-.285-39.812-1.223-7.27-1.008-14.325-2.301-16.848-10.293-2.59-3.023-5.184-6.047-7.055-9.43-1.726-1.796-3.672-3.093-6.55-.863-3.887 2.375-7.774 4.68-12.813 6.981-2.301.429-2.879 1.511-1.652 3.308 1.941 2.805 2.879 6.406 3.308 10.293-.644 2.949-1.437 2.949-2.445 0-.504-2.734-1.223-5.543-2.445-8.637-.864-.863-1.368-2.3-3.309-.789-1.223.645-2.519 1.438-3.742 2.879-1.871.789-2.231 2.231-1.652 4.535.14 3.528.644 7.2 3.742 11.086.933 8.278 4.39 14.973 8.207 21.454 1.148 2.804 1.008 4.894-3.672 4.101.359 9.359 1.726 20.016 14.254 25.848-.719-3.453-1.008-5.039-1.078-8.133 4.101 5.254 5.468 14.324 8.132 23.902 2.086 11.59 4.032 23.11 5.04 34.629.285 5.254.574 10.438.863 15.695 0 1.942-.645 3.598-2.086 4.895-1.367 1.582-3.024 3.813-3.742 8.277-2.375 1.293-4.535-.07-7.414 2.016-2.735 1.438-3.094.645-3.528 2.086-1.293 2.016-1.437 3.094 1.512 3.672 1.148-2.52 2.66-3.598 4.535-3.238.789 0 1.078.503.789 1.652-1.078 1.008-2.156 1.726-3.308 2.016-1.149 1.078-1.582 4.101 1.582 6.621 2.879.789 6.476-1.293 10.148-3.743.359-5.109.285-9.504 4.75-13.964 2.949-2.157 4.535-4.606 6.336-7.848-.141-16.484.863-32.973.719-49.461.359-8.637 1.078-16.988 3.672-23.469-1.797-.863-1.368-2.086-1.368-3.308.141-2.446-.429-4.965-.285-7.414 1.008-.79 1.942-.719 2.879-.43.071 2.59.071 5.183.863 7.414 1.653.574 2.157 2.23 1.653 4.965-2.735-1.293-2.086 2.804-2.086 5.758 6.047 1.796 12.672-.864 19.367-4.102 8.492-5.109 17.063-9.07 25.988-11.156 4.246.285 9.215.215 16.485-1.223 1.222-2.086.504-4.101-.43-6.191-1.008 1.148-2.23 1.797-3.672 2.086-3.094-1.368-6.84-1.653-11.156-.864-10.223 3.309-19.582 9.215-27.215 10.727-2.59-1.223-2.59-2.445 0-3.672 6.192-.574 16.055-5.469 24.766-9.07 2.3-1.293 4.679-1.727 6.98-1.223 2.52 1.078 5.254 1.438 8.637.359.574-1.367.719-2.734.43-4.101 2.734 4.031 4.679 6.476 7.414 14.902-1.223 8.422-1.512 18.43 1.511 25.559 6.192 11.156 11.661 22.176 16.989 32.902.718 2.879 1.437 5.758 2.086 8.637-3.168 6.551-5.903 13.605-8.207 21.023-3.454-.07-7.27.719-11.59 4.102-2.086 3.238-1.438 4.461 2.086 3.742 1.437-1.652 3.453-3.308 6.621-4.965 1.293.215 1.582.645.789 1.223-.43.504-1.582 1.148-2.446 2.879-1.511 2.23-.863 3.672 4.536 3.308 3.168-.644 5.109-2.156 5.757-4.535 4.317-10.222 8.207-20.66 13.965-30.453.141-2.805 0-5.543-1.652-7.848-2.445-5.543-4.965-11.23-6.551-19.367-2.301-2.59-2.015-4.894-.429-6.98 1.726-9.789 3.957-19.512 7.414-29.301 2.086-8.062 3.671-16.199-1.653-24.336-1.437-3.309-2.66-4.965-3.672-4.894-.504-2.231.36-3.309 2.446-3.309.285 1.582.933 2.949 2.086 4.102 4.605-3.887 9.359-7.27 14.398-9.43 9.645-6.406 16.055-15.047 19.223-28.293-.43-18.934-2.735-31.68-9.215-36.359-2.156-3.383-4.895-1.872-3.813 1.511zm-32.832 71.856c.071-1.367.575-2.301 2.59-1.727 6.117 10.582 8.711 22.246 3.383 36.43-1.797.719-2.734-.07-2.879-2.301 4.461-9.933 2.52-20.879-3.094-32.398zm5.907-6.481c.789 0 1.437.575 1.437 1.293 0 .645-.644 1.223-1.437 1.223-.719 0-1.368-.574-1.368-1.223 0-.718.645-1.293 1.368-1.293m-4.032 52.2c-.359 1.582-1.222 2.66-2.59 3.308-.359 1.438-.285 2.59 2.661 2.086 1.437-1.652 1.437-3.453-.071-5.398zm-22.105 25.054c1.008 3.309 2.015 6.551 1.871 10.871.504 5.543 2.016 9.215 4.965 10.223.429 1.797-.504 2.52-2.156 2.734-2.735-1.078-4.461-4.75-5.184-10.222-.141-4.176-1.223-7.918-2.231-11.735.504-1.726 1.438-2.375 2.735-1.871m19.082 2.305c1.512 3.672 3.383 5.687 4.39 11.301 1.223 4.605 3.383 7.199 7.126 7.629 1.871-.719 1.941-1.368 1.511-2.879-3.597-.285-5.543-2.879-6.336-7.055-.789-4.965-2.445-7.484-3.957-10.437-1.582-.575-2.59-.286-2.734 1.437zm-95.547-2.305c1.293-1.437 2.66-1.437 3.957.141.141 5.324.934 10.367-1.582 17.062-1.367 2.735-.215 11.805 1.941 15.696-.07 2.734-1.078 2.015-1.941 2.015-3.168-4.605-4.031-17.422-2.52-19.008 1.727-4.679 1.223-10.148.141-15.91zm-45.934-6.91c-7.343 4.031-12.308 9.789-14.828 17.133-1.511 1.148-2.375.644-2.59-1.438 3.094-7.125 7.848-13.535 15.696-18.644 2.445-.285 3.023.719 1.726 2.949zm28.871-36.937c-.644 1.367-.503 2.949.575 4.82 1.078.359 2.156.574 3.238-.574.215-1.942-.215-3.383-1.293-4.317-.863-.574-1.652-.574-2.52.071m7.489-36.789c-1.653 4.316-3.528 8.207-6.117 10.726-6.911 5.109-7.344 9.645-7.559 14.184.574.718 1.437.863 2.52.359.285-5.758 3.742-10.148 9.429-13.68 0 1.438-.359 2.805-1.078 4.246.574 1.368 1.797.934 3.094.286-.07-3.239 3.527-6.477 8.062-9.789 0-1.223-.789-1.872-2.375-1.872-2.519 2.231-5.468 4.965-6.695 5.04.43-3.239 2.23-5.543 3.742-7.989-.215-1.941-1.293-2.445-3.023-1.511m10.656-6.051c-.215 1.148-.934 1.941-2.156 2.301-1.293.07-2.231-.286-2.231-1.512.141-1.149.504-2.156 2.231-2.52 1.367.215 2.086.789 2.156 1.727zm9.719 15.984c.789 3.813 1.148 7.774 1.148 11.879 1.008.574 2.016.934 2.949-.574.071-4.031 0-8.063-1.007-11.59-1.008-1.078-2.016-1.008-3.094.285zm-38.664-71.781c1.367 1.222 2.445 2.66 1.437 5.469-1.652 5.324-.644 8.421 1.942 10.367-.504-3.742-.575-7.559.429-11.301 1.368-3.238-.215-5.184-1.652-7.199-2.59-.504-3.309.429-2.156 2.66zm-25.129 22.461c1.512.719 2.734 1.726 3.672 3.094-1.223.718-2.446 1.148-3.672 1.222-1.512-.07-2.231-.789-2.231-2.156.141-1.797.864-2.52 2.231-2.156zm-4.75-7.559c0-4.39 2.086-5.543 4.535-6.262 1.512 0 2.949-.07 4.461-.07.863-1.367.43-2.445-.215-3.453-3.238 0-4.535-.574-5.613-1.223-1.293-2.086-2.66-2.23-3.957-2.445-1.871-.215-2.375.719-2.375 2.301 1.008 1.437 1.726 3.023 1.582 4.82-4.102 4.391-.574 6.262 1.582 6.336zm27.574 89.207c-5.398 6.336-10.797 12.672-16.199 19.008-3.383 4.965-6.336 7.125-9.215 8.855-11.879 10.727-13.68 18.215-16.414 25.989-.863 14.469 1.797 21.742 6.98 24.047 1.293 0 2.086-.645 2.446-2.086-1.653-1.438-2.446-2.879-3.168-4.317-.36-1.797.215-2.375 1.726-1.797 1.582 1.149 2.949 2.446 2.66 5.399 1.368 1.437 2.95 2.59 5.758 2.156v2.735c1.367 1.726 2.735.933 4.176-.141-2.156-3.742-2.805-7.414-2.66-11.156-.863-2.301-2.086-4.461-5.399-4.895-4.246-3.168-5.109-5.687-2.375-7.484 2.735-3.024 4.606-7.414 6.407-11.879 12.308-10.797 24.98-21.024 38.156-30.453 1.293-1.223 1.223-2.375-.285-3.528-6.84-2.3-10.008-6.261-12.598-10.437zm-31.465 79.848c1.293-.141 2.52-.359 4.176.07.934 1.293.504 2.231.285 3.672-1.652 0-2.879-.719-3.887-1.871-.718-.719-.574-1.293-.574-1.871m121.684-81.07c5.543-1.653 10.871-2.375 15.91-2.016.07 7.269.141 14.543.215 21.887 1.511 3.168 2.949 6.406 4.461 9.574 0 8.492-.285 16.918 4.246 24.91 1.008 2.805 1.293 5.758-.215 9.07-5.613 10.871-11.231 21.743-16.848 32.614-1.148 1.367-2.59 2.015-4.246 1.871-2.156-.141-4.246-.504-5.398-2.59-1.008-1.652-.863-2.59.574-2.805.719.215 1.437-.07 2.23-.933.864-.934.719-1.727-.359-2.231-2.59 1.078-4.965 2.375-6.551 5.399-.863.07-1.582-.36-2.015-1.293-.504.285-1.008.504-1.438.718.789 1.149.863 2.231.141 3.383-1.293.07-2.086-.644-2.375-2.086.863-3.383 2.66-6.551 10.512-8.492 2.375-.141 4.605-1.078 6.55-3.742 2.59-5.469 5.039-11.086 7.2-16.988 1.222-4.247 1.078-8.422.359-12.672-3.957-7.414-7.774-14.973-6.262-25.918-4.316-4.75-5.398-16.414-6.695-27.645zM310.602 387.43c-5.184 1.652-9.215 4.101-13.102 6.695-4.246 2.086-5.254 4.894-5.828 7.918-.504 1.941-2.156 3.094-4.75 3.527-7.125 3.813-12.598 7.988-18.141 12.168-.215 1.727.645 3.024 2.59 3.813 1.871-.575 2.734-1.582 3.094-2.735 1.437-2.445 2.734-2.375 3.887-1.148.574 1.797 3.093 3.094 5.828 4.316.359-1.437 1.007-2.375 2.015-2.879 1.871.071 2.66.789 2.375 2.086-.359 2.086-1.652 3.453-3.886 4.102-.719 1.078-1.079 2.015 1.511 2.156 1.942-.574 3.528-1.652 4.535-3.168 3.168-1.008 4.606-.359 4.317 2.016-.789 2.086-2.59 3.168-4.606 4.031.215.359.864.574 2.016.645 6.191-1.582 11.59-2.375 15.047-1.223 5.039.719 5.469-.574 6.117-1.727-.789-1.797-2.445-2.734-4.535-3.308-.285-1.653.215-2.735 1.512-3.168 1.293.07 1.941.644 2.015 1.652 3.309 1.149 5.903-.719 8.567-2.375.07-1.512-.215-2.805-1.582-3.383-1.223-6.047-.575-11.23-.36-16.558-1.148-1.008-2.086-2.301-2.59-3.887-.504-1.727 0-2.445 1.368-2.086 1.582 1.223 2.589 2.375 3.023 3.527 1.008 6.118.43 10.942.141 15.981.574 2.734 1.941 4.39 4.101 4.965 3.957 2.23 6.981 1.511 10.008 1.008-1.727-5.184-.504-14.543.574-23.758-1.582-2.879-3.672-4.176-5.828-5.254-1.512 0-2.59-.645-4.101-.645-2.231-4.461-7.344-5.543-15.336-3.308zm-35.137 33.41c-1.367 1.582-2.52 3.308-1.438 6.406.934 1.797 2.879 2.375 5.325 2.375 1.871-.285 3.453-1.293 4.101-3.742-.43-1.293-1.078-2.375-3.094-2.375-.285 1.293-.215 2.804-2.156 3.168-1.293.14-1.871-.504-1.652-1.942.14-1.078.719-1.797 1.797-2.3-.215-1.079-.504-2.016-2.879-1.582zM256.457 4.32001C190.074 6.62103 124.914 13.68 61.8437 29.23c-.789 45.43-19.582 78.84-56.8789 102.672 15.0469 74.446 16.1992 149.039 4.6797 220.031H196.625c-12.742-20.878-15.551-41.542-16.848-68.972h76.68V4.32001M184.098 63.285c-.645-.789-2.086-.863-4.032-.719-.429.071-1.007 0-1.367-.215-.429-.214.141-1.007-.285-1.293-3.598-2.734-4.176-7.054-5.184-10.367-.214-19.148-8.71-27.359-20.949-30.597 7.125 12.671 11.805 24.621 8.063 33.839-8.422 5.184-15.84-4.679-23.11-16.628-7.269-12.094-17.711-11.879-27.933-12.383 10.726 6.621 18.719 14.687 22.605 24.695-2.66 6.621-13.605 2.086-20.445-1.078-6.981-2.805-13.965-8.711-20.949-14.973-10.008-1.367-17.711-.574-22.032 3.168 7.848 2.086 15.551 4.246 20.446 9.141-17.567 6.336-26.1331 14.973-30.5979 24.695C69.27 64.379 80.141 58.117 97.496 57.683c5.973.575 11.805 2.157 24.621 6.118 4.246.863 10.293 1.222 15.695-.215 7.559 3.672 15.84 6.336 26.856 5.398-.574 1.078-1.078 2.157-1.652 3.239-8.352.285-16.848 2.519-25.774 9.07-13.316-.285-22.894 3.742-32.758 7.558-17.636 4.821-34.054-1.007-49.3903-15.55 2.5195 7.847 3.0235 16.773 13.3903 20.375.43 1.078 1.512 2.156-.504 3.238-9.8628 6.117-17.4214 4.391-25.773 5.324 6.5508 5.039 9.6445 12.813 38.086-.504 9.719 2.735 17.422 2.375 24.191.504 1.368 1.078 1.942 2.66 1.582 4.895-7.125 13.605-17.781 20.156-29.519 24.695 22.246.574 39.597-6.477 43.484-34.918 5.039-3.094 9.574-3.094 13.965-1.652 2.52 12.308-2.949 23.757-10.726 34.918 9.718-3.094 19.007-9.285 24.695-37.582 1.078-3.168 2.156-3.528 3.238-1.079-.359 3.094-.863 6.118 1.078 9.141 1.293 4.317 1.512 8.567.574 12.887 1.727-1.438 3.528-2.879 5.325-4.317 1.941-.863 3.597-.07 2.66 1.872 1.293 14.324-1.512 25.414-3.742 36.285-3.094 5.398-6.981 9.359-11.805 11.3-2.734 2.086-4.82 2.301-6.981 2.661-15.191.214-30.453.359-45.644.574-11.949.43-21.024 3.094-30.0938 6.406-3.4531 2.301-13.2461 2.086-26.4219-1.293-5.2539 5.254-4.5351 9.645 2.1563 13.75 1.6523 5.543 5.1093 6.336 9.5742 6.117-5.3985 16.2-4.1016 32.973 1.4375 48.024-1.5117 9.719-4.2461 16.269-7.9883 22.82-5.1094 1.008-9.2148 7.703-10.8711 12.168 1.7266 5.184 3.3086 7.773 5.1094 12.957 4.0312 9.645 5.039 18.574 4.5351 28.223.5039 4.316 1.3672 9 1.9414 13.246-.2148 2.156 1.293 2.949 2.3008 3.957 4.75.863 6.6953 4.605 7.4844 9.644.7188 2.95 1.8711 4.75 3.2383 5.973 7.9883-.719 14.9027-.719 21.4527-.574-1.652-3.094-3.742-6.192-5.324-10.727-1.437-.644-2.445-1.726-2.734-3.238-7.7033-3.383-10.5119-9.07-11.9494-15.047-2.1563-11.59-3.5977-23.183-5.7578-34.848.9336-2.66 1.7969-5.324 2.6601-8.062 3.0938-5.324 6.1172-10.727 9.1407-16.055 2.4454-2.445 3.1684-1.726 2.1564 2.086-.141 6.696-3.3088 10.293-5.9025 14.543-4.0313 5.613.0703 5.758 1.0781 8.063 7.3434 11.015 13.1754 21.672 18.2854 32.109.359 4.461 3.168 6.477 5.902 8.637 2.734 1.148 4.316 3.308 5.324 5.902.141 1.942 0 2.734-.718 3.742 2.519 3.239 2.878 6.477 3.453 9.645 6.406.574 12.886 1.078 19.293 1.652 1.078-6.551-.286-11.156-7.2-17.133-4.535-1.871-6.117-5.324-7.847-9.214-1.438-2.301-2.735-4.68-5.324-6.981-1.079-3.957-2.661-6.336-4.317-8.566-1.941-3.528-3.957-7.125-5.902-10.653-5.688-8.711-1.942-19.652 2.156-30.672 5.109-8.207 8.781-14.902 12.238-25.988-1.078-3.742.43-10.008 2.231-13.176 9.429 1.512 15.551 5.254 21.527 9.141 9.789 5.973 14.613 4.965 19.871 5.902h19.293c3.957 9.864 2.949 16.989 2.231 26.278-3.887 6.261-3.453 14.687-1.653 20.949.36 11.949-.359 22.965-1.652 33.766-1.223 2.66-1.727 4.46-.645 10.007 5.254 4.317 7.989 10.438 9.79 17.063 7.054-1.223 13.894-1.223 20.445-1.293-.934-5.903-3.309-9.504-5.973-14.254-1.941.141-3.383-1.871-4.246-3.453-2.519-2.879-4.031-5.758-5.398-8.567-.934-9.503-.215-18.933.574-28.437 2.519-7.199 4.535-14.688 4.82-23.109 2.66-7.485 5.324-14.973 8.063-22.536.718-4.82 1.437-8.132 2.156-12.957 6.262-3.886 12.453-9.644 19.293-11.23 6.117-2.231 10.223-.215 13.461 3.812 4.316 6.696 6.047 18.864 9 22.821-.719 1.293-.789 2.734-1.512 4.031 1.942 5.324.934 6.695-.504 7.484-2.879 1.942-5.758 3.453-8.636 4.821-1.583 1.797-1.727 3.597-1.583 5.398.719 5.543 2.446 9.07 4.317 12.309 3.023 1.511 6.047 1.871 9.07 1.078 2.301-2.375 4.246-5.543 5.903-9.645-1.942-3.527 1.437-5.183 3.812-8.062 3.094-5.184 3.527-11.446 2.66-16.629-2.879-5.688-5.758-11.231-8.566-19.871-2.805-2.735-3.309-8.856-4.317-14.543 0-2.301-1.511-4.606-3.238-6.981-6.98-6.047-10.941-5.039-14.469-3.742-2.3.863-4.894 2.086-5.902 1.078-.934-5.687-1.797-11.445-2.734-17.207 1.582-.285 3.453.071 3.812-2.66-.789-5.973-1.797-12.168-4.316-19.293 1.726-.504 3.238-1.078 3.238-2.734-1.437-4.821-2.879-9.645-4.316-14.469-.789-2.086-1.079-3.957 2.156-3.742 1.008.14 1.726-.574 2.156-2.156-1.871-4.461-4.031-8.567-6.98-11.805-.789-2.52-.43-4.102 1.078-4.82 1.367-.79 1.367-1.872 0-3.239-1.653-3.383-3.309-6.765-3.813-10.726 5.758-.071 11.446-.43 17.207-1.078 2.301 1.941 5.11 3.453 9.141 3.742 5.613-1.078 7.558-5.184 9.644-9.141.645-5.973-1.941-7.848-3.742-10.726-3.168-4.176-9.504-7.2-15.551-10.223-5.828-2.52-7.054-5.039-9.14-7.484-6.117-3.743-7.485-3.239-10.653-4.176-4.605-1.438-8.566-4.032-8.566-4.75" style="stroke:none;fill-rule:evenodd;fill:#fffdfd"/>
    <path d="m215.777 298.008-12.812 19.871 34.055 57.094 23.253-36.934 22.75 38.156 36.141-62.062-12.238-16.989-23.469 39.024-22.176-37.727-22.176 37.512-23.324-37.941zm109.871 124.773c-5.828 4.391-11.375 7.988-16.988 11.59-3.168 2.086-.43 8.133 4.102 6.117 2.949-1.652 5.613-3.672 8.132-6.117 2.086-.574 4.247-1.438 6.622-2.805 4.246-2.086 8.132-4.82 11.66-8.133 3.742.43 6.406-.285 6.621-3.453.574-4.461-1.512-4.82-3.813-5.613-2.156.43-3.382 1.438-3.812 3.094-.141 1.582-.215 3.168-.36 4.82-3.886 1.438-7.988 1.008-12.168.504zm13.61-16.558c3.597-3.598 7.773-5.469 13.316-3.743 4.031 1.942 7.055 5.184 6.551 13.176-.934 4.246-3.453 6.336-6.766 7.485-3.238-.141-4.39-1.583-2.879-4.606 1.797-.504 3.598-1.293 4.895-4.461.719-3.023.215-5.613-3.168-7.414-4.68-1.078-7.055 1.008-9.07 3.527-2.735.215-3.743-1.078-2.879-3.957zM260.922 4.32001C326.945 5.328 393.039 12.887 459.137 26.926c.718 49.535 24.98 81.14 59.902 104.613-15.047 69.551-19.148 142.988-4.895 220.68H324.715c10.293-18.141 16.199-39.528 16.773-68.973h-80.566zM362.012 261.07c4.461-1.871 8.925-3.308 13.39-1.222 6.118 1.652 12.239 3.308 18.36 6.117 4.605.359 8.711 1.008 11.59 2.445 4.46 2.445 8.351 4.895 11.015 7.344 1.293 4.894 4.031 8.351 6.981 11.59 9.14 5.468 15.476 6.336 21.742 2.23 7.558-7.918 11.59-16.484 14.039-26.637.141-11.519-.863-16.484-2.445-18.359-2.157-4.535-1.872-7.559-1.223-10.367 0-7.629-3.742-9.141-7.27-11.016-4.894-1.437-9.789-2.086-14.687-1.871-4.82-.215-5.399 8.781-10.367 8.567-2.446.574-5.688.863-7.344 0-2.231 1.652-9.141.359-10.438-1.223-8.855.789-11.519-2.156-14.613-4.895-7.558-8.132-15.117-16.269-22.605-24.406-9.43-7.988-13.032-17.855-10.582-30.383 2.375-5.758 2.445-19.078 2.015-36.215 0-4.605 3.094-8.781 11.016-15.046 8.566-4.965 16.484-10.512 25.629-13.68 9.285-2.016 18.215-4.895 26.926-8.567 24.55-11.734 37.652-29.3 30.527-57.453-8.207 19.438-19.652 31.032-32.398 39.742-11.52 3.813-20.735 4.68-14.04-15.91 1.797-8.711 5.04-18.285 8.567-28.078-8.856 3.742-17.207 8.422-22.606 19.512-3.023 5.398-5.972 11.016-5.543 23.254.071 3.887-2.156 6.262-5.468 7.918-7.559 1.871-15.118 3.957-23.254 11.015-4.102 6.477-8.782 7.27-14.039 2.446-11.446-14.828-10.438-34.629-4.895-56.231-11.805 9.719-22.605 20.735-21.383 46.438 2.086 10.293 4.895 20.015 10.368 27.504 5.253 5.902 5.613 15.261 4.101 26.277-1.437 5.469-2.66 9-4.101 12.238-.719 6.336-4.391 7.2-8.493 7.344-7.054-.141-12.527-1.727-18.359-3.094-12.813-2.375-21.887-19.797-30.527-43.773-10.078 18.43-8.711 36.359 9.285 55.726 13.461 8.711 25.629 13.965 37.148 19.223 8.133 4.102 12.239 10.149 15.84 16.484 4.895 9.79 11.375 17.207 18.359 26.278-27 23.828-58.82 10.652-84.308-9.141 4.101 18 13.031 32.543 41.687 41.11 15.766 2.949 33.84 1.726 52.414-3.239" style="stroke:none;fill-rule:evenodd;fill:#d0ac69"/>
    <path d="M402.547 263.59c-4.965.718-12.887-.789-27.43-7.199-3.094-1.512-6.262-.934-9.43 0-20.949 6.55-41.109 9.429-59.687 4.031-20.52-7.989-29.52-18.504-33.262-30.094 26.637 15.262 53.352 29.23 83.52 2.23-9.864-10.726-17.926-22.101-24.262-34.125-1.008-4.031-4.461-7.484-10.293-10.292-13.176-5.11-26.133-11.016-38.156-19.797-17.856-17.782-16.774-32.469-13.031-46.653 7.343 16.055 14.398 33.262 27.863 38.157 5.973 1.367 12.383 2.66 21.957 4.031 4.82-.719 9.285-2.086 11.66-7.629 2.231-8.352 3.527-16.774 4.535-25.125.071-9.285-2.804-14.399-6.261-18.863-17.133-32.973-7.989-49.102 4.894-62.856-4.031 19.149-2.66 33.477 4.031 43.125 3.309 6.117 7.199 11.375 15.262 10.293 4.535-4.75 11.086-9.789 25.199-15.695 4.606-.285 8.781-1.512 9.864-9 .863-17.352 6.55-29.301 17.062-35.926 3.672-1.797 3.672-.43 3.094 1.367-3.528 9.789-7.989 19.727-6.696 33.192.141 3.308 2.661 5.398 7.629 6.336 17.278-2.95 30.453-16.559 41.758-35.063 2.949 10.941-1.078 21.672-10.797 32.324-9.07 7.485-19.222 13.102-30.093 17.492-9.215.504-17.352 3.598-25.125 7.629-8.567 3.957-16.559 9.43-24.262 15.766-3.453 3.742-5.469 9.645-5.399 18.863.645 9.215.215 18.504-1.293 27.789-1.871 7.125-1.652 14.758 3.094 23.325 4.031 8.132 10.223 14.109 17.567 18.863 5.324 6.336 10.726 12.597 16.125 18.863 1.871 1.797 6.476 3.309 12.597 3.598 4.176 1.797 7.559 2.375 11.156 1.293 2.59-.719 6.192-1.008 10.368-1.293 2.375 2.23 3.308 4.535 3.597 6.765.934 2.805-.07 2.95-3.382 3.094-1.942-1.797-4.247-1.582-6.477-1.293-4.031 0-7.848-.43-11.231-2.23-2.156-1.223-4.894-1.871-8.566-1.797-1.797-.141-3.238-.645-4.461-1.367-1.652-.141-2.23.429-1.797 1.796 2.805 1.727 6.192 2.446 9.864 2.661 2.085 1.078 3.957 2.086 6.621 2.804 4.82.071 9.574.285 11.375 1.223 4.316 1.438 7.054.934 9.863.504 2.445 6.262 1.726 10.726 1.797 15.695.644 1.438.789 1.942 2.375.36 0-10.079-.43-19.942-6.406-29.086-.934-1.942 0-3.887 2.66-5.828 1.078-1.653 3.308-2.086 6.765-1.368 6.262-.14 11.95.719 13.461 9-.285 4.176-.14 8.352 3.094 12.528-.285 9.07 2.445 17.207-4.461 30.093-4.68 8.567-9.07 14.11-12.598 13.032-8.781-.719-16.773-2.805-18.359-14.399-4.535-3.742-10.652-7.484-17.492-11.156zm7.129-13.102c1.941.645 3.957.789 6.117-.215 1.437-1.008 3.453 0 5.758 1.582 2.375 1.368 1.008 2.375 4.39 2.086.575.215 1.223.285 1.942.36.574-.789.504-1.438.215-2.086-2.52-1.797-4.821-2.52-7.2-3.453-2.804-2.301-5.468-2.231-7.918-.43-2.804.359-4.101-.574-5.324-1.582-1.008-1.438-2.23-2.156-3.742-2.375-1.582.285-2.156 1.148-1.871 2.59.719 1.008 1.582 1.797 3.309 1.437 1.652 1.582 1.148 1.871 4.316 2.086zm11.301 5.11c-2.301 0-4.317-.286-5.399-1.653-1.367-.359-1.797.934-2.156 2.446.863 2.015 2.59 2.23 4.461 2.23 3.238-.504 5.183-.07 6.551.789 3.023.863 3.453-.141 3.527-1.437-1.008-1.512-2.016-2.016-3.094-2.375-1.437-1.583-3.527-.286-3.887 0zm-15.622-4.825c-1.293.934-1.293 1.871-1.078 2.879.789 2.231 2.231 1.727 3.743.863.718-2.589-.504-4.031-2.661-3.742zM365.32 110.664c3.168-1.652 5.903-3.527 7.774-5.758 1.008 0 1.511.359 1.367 1.078-1.078 2.805-3.887 4.965-7.484 6.766-1.727-.359-1.797-1.149-1.653-2.086zm-4.82 2.016c-.719 1.367-1.582 2.085-2.66 2.445-.285.863-.36 1.652 1.293 1.871 1.148 0 2.301-.863 3.308-2.734.215-1.293-.429-1.797-1.941-1.582m-5.258 5.328c-.863 0-1.437.359-1.367 1.511.141.864.645 1.512 1.652 1.582 1.078.141 1.727-.429 1.871-1.796-.285-.79-.789-1.512-2.156-1.293zm-2.879 4.894c-.863 1.367-1.797 2.879-2.879 4.176-.285 3.168-1.367 6.117.141 18.863.863.504 1.512 1.653 2.879-.359-.574-6.117-1.293-14.039-.504-16.703 1.437-1.942 2.52-3.309 3.023-4.75-.644-1.438-1.511-1.871-2.66-1.223zm-4.25 29.016c.071 1.223.285 2.375 1.727 3.168 1.148.429 1.941 0 2.301-1.367 0-1.438-.789-2.375-1.653-3.309-1.078-.645-1.797.07-2.375 1.512zm-3.093 12.601c.429 5.399-2.231 5.973-2.157 11.157-1.078 1.078-2.086 1.078-2.949 0 .285-5.039 3.023-6.118 3.168-11.086.645-.504 1.293-.575 1.941-.071zm3.671-5.039c0 3.239-.718 6.407-2.3 9.43-.504 3.887-.864 7.773 0 11.66.933 1.438 1.941 1.797 3.093-.07-.644-3.813-.718-7.848-.14-12.024 1.726-2.445 2.23-5.109 2.23-7.773-.359-1.871-1.437-1.941-2.879-1.223zm23.614 64.008c-.215-1.437-1.223-3.023-3.453-4.68-4.965-3.886-14.325-14.109-14.04-18.429-2.878-2.879-4.535-4.391-5.183-7.774.504-1.367 1.293-1.293 2.156-.718.863 2.804 4.535 6.191 5.543 6.839 2.301 6.981 8.781 14.758 15.406 19.438.934.719.789 2.519 2.016 3.742.285 1.438-.285 2.231-2.445 1.582m-3.672-.433c-1.293-2.301-3.528-4.391-6.551-6.262-3.453.07-3.887-1.512-5.039-2.735-1.078-.503-1.941-.14-2.156 1.797.718 1.727 1.726 3.309 4.316 3.672 2.805.934 4.82 2.375 6.117 4.391 1.582.863 2.805.933 3.309-.863zm4.465 8.351c-1.942.285-1.942.863-2.157 1.367-.14 1.223.789 1.727 1.797 2.086 1.078-.215 2.016-.574 2.016-1.797-.141-1.148-.719-1.726-1.652-1.652zm3.097-5.832c1.942 2.086 3.598 4.461 4.68 7.629 2.519 2.805 5.184 4.176 7.918 4.391 1.078-1.149 1.078-2.086.574-3.024-3.308-.644-6.117-2.23-7.703-6.117-.644-2.66-2.086-3.812-3.453-5.039-1.293-.141-1.871.719-2.016 2.156zm1.797 11.52c2.156 1.797 4.606 3.308 8.063 3.527 3.527-.934 6.336-.215 8.636 1.582.645 1.871-.07 2.156-.933 2.086-2.231-1.293-4.68-2.301-8.063-1.367-3.957.07-6.621-1.367-8.636-3.742-.071-1.582.359-2.086.933-2.086m33.844 24.336c.574.933 1.008 1.941.07 3.168-1.008.359-2.086.503-2.949-.504-.645-.719-1.008-1.438.215-2.52.863-.504 1.726-.504 2.66-.141zm7.344 2.953c2.66 1.222 4.964 3.308 6.98 5.902.719 2.086-.14 2.879-2.59 2.52-2.015-2.661-4.39-4.461-6.476-5.973-.285-1.652.429-2.445 2.086-2.445zm27.574-31.825c-3.094.286-6.406-.214-9.863-.933-1.368-1.008-.719-1.797-.43-2.66 3.742.933 7.269 1.582 10.078 1.078 1.871 1.222 3.094 2.301.215 2.519zm-8.567 6.625c2.301.286 4.606.79 6.551 1.797 1.871.575 3.168.36 3.887-.789.215-1.511-.645-1.871-1.652-2.086-2.157.215-3.887-.644-5.325-1.941-3.093 0-4.39.934-3.453 3.023zm1.512 13.68c1.653.863 3.383 1.078 5.399.574.933-.285 1.941-.359 3.023-.07 2.086 1.008 2.52-1.078 2.301-1.652-1.512-1.582-5.902-3.383-8.352-1.797-1.222.215-2.156-.285-2.519.07-.43 1.582-.141 1.871.14 2.879zm.36 10.801c1.367 2.23 3.812 3.168 6.406 4.031 1.512-.359 2.375-.933 2.015-2.156-2.589-.574-4.605-1.797-6.117-3.453-1.293-.43-1.871.504-2.301 1.582zm.214 9.359c1.871.43 2.446 1.368 3.168 2.301-.214 1.223-.718 2.086-2.23 1.941-1.512-.429-2.375-1.367-2.805-2.445 0-1.367.645-1.941 1.871-1.797zM8.9218 356.398H197.777c15.192 22.032 37.293 37.512 59.184 47.95v271.941c-15.336-10.582-35.781-18.43-69.621-26.277-43.988-10.512-72.141-23.614-104.758-42.981C19.3672 567.219-3.3828 472.754 8.9297 356.402zm86.9762 56.594 21.168-2.301c-20.445-16.558-41.543-26.422-62.9996-33.765 2.7344 22.82 9.2148 45.285 21.0936 69.117l6.91-20.016 38.446 46.727-27.215 11.015-22.102-28.293-2.301 35.856-33.5504 4.68 28.3672 18.359-13.4609 32.254 32.7581-15.477 22.461 27.504 1.222-34.918 34.125-5.109-28.797-17.711 9.43-27.07 64.293 77.039-8.062 22.246 28.437 30.308 6.91-19.582 6.91 8.422 14.184-13.031-7.27-8.063 23.039-2.66-28.437-33.406-20.734 3.453-66.383-79.125 29.949-6.91 16.055 33.406 10.652-33.476 34.918 3.597-23.687-24.98 16.558-24.981-30.168 3.309-14.039-32.469-12.023 33.91-35.278-4.82 23.325 25.629-18.071 25.703-36.644-44.351zm76.969-351.219c-2.086-3.093-3.527-6.98-3.453-12.672.285-12.527-3.812-17.925-9.215-21.308 4.461 9.359 5.758 19.148 2.301 29.375-4.895 2.734-11.734 2.086-17.133-2.156-9.07-15.477-18.644-27.504-27.359-26.926 9.14 7.199 16.629 16.055 17.492 26.781-12.957 2.52-19.223-.644-25.918-3.453-7.344-2.734-10.512-6.91-13.82-10.941-10.653-5.469-13.176-3.887-16.703-3.454 4.894 1.872 9.933 3.672 12.671 6.911 1.872 3.527.286 4.82-1.726 5.757-15.192 4.317-18.934 9.071-24.192 13.821 7.629-3.887 15.551-6.551 23.614-8.637 10.582-.934 18.359.504 24.191 3.453 7.125 3.094 14.543 4.895 23.039 2.301 8.133 4.75 21.238 5.254 35.063 5.183-5.903 3.528-5.184 6.262 2.301 8.063-4.606-.43-8.493-1.148-10.512 2.301-6.406-1.293-18.43 1.652-20.52 4.605-4.461 5.543-7.918 5.11-12.308 4.535-6.336-.789-13.606 2.375-19.942 4.68-11.156 6.262-20.445 4.606-29.375 1.727-8.062.07-13.605-3.672-19.0076-7.485.3594 2.805 1.7266 5.399 6.9106 6.91 4.175 1.438 4.175 4.391 2.3 8.063-6.839 2.949-12.527 4.82-18.4293 6.91 4.9648 1.078 11.8793.07 23.0393-5.758 2.156-1.293 3.672-3.812 8.636 0 7.704.864 13.102.285 17.856-.574 2.301-.934 4.316-.934 5.758 1.148 2.015 7.848-4.102 16.848-14.254 25.125 9.863-2.519 19.367-10.293 22.316-24.55-.14-7.774 4.246-8.133 6.91-9.215 3.887-1.149 7.629-1.008 12.887 1.367 4.102 9.359.645 19.008-4.82 29.734 6.84-7.558 12.238-18.214 14.398-35.711 4.461.36 8.422-2.3 12.024-6.335 5.972-3.813 10.078-4.176 13.82-4.032-6.477 2.231-10.797 5.614-13.82 8.637-3.094 4.102-4.246 7.559-3.453 10.367.574 2.375 1.511 3.024 2.086.645.863-4.606 2.949-7.774 5.972-9.285 3.528-.575 3.168.574-1.148 3.453-3.239 5.687-3.957 10.078-4.606 14.398 5.688-.43 12.742-5.469 14.11-11.734.07-8.711 3.382-12.672 6.046-12.672 3.528-.36 6.911-.141 9.79.215-2.446 1.797-5.469 2.734-9.215 3.453-2.52 4.246-2.446 9.43-1.942 13.246-3.238 5.398-8.207 7.559-11.879 8.637.43 11.734-.14 23.543-2.878 35.711-2.52 11.086-10.727 18.214-18.071 21.957-12.094.718-22.176-.286-34.269.504-18.575-1.079-32.973 1.293-43.2 5.828-8.0621 6.336-13.8941 14.398-16.7027 26.422-2.0859 14.039-.5742 26.566 3.4531 38.015-1.582 10.293-4.8203 18.504-9.2148 25.344-6.4063 3.672-9.2852 7.125-8.6367 10.367 2.3008 5.543 4.6054 11.086 6.9101 16.629 2.0157 10.008 3.0235 19.941 2.8789 29.879.0703 6.047.4297 9 5.1836 10.871 1.5117.43 4.1758 4.246 4.2461 6.766-.3594 2.949 1.6524 4.679 3.8125 5.972 2.086.071 4.0313-.14 5.7578-.574 1.8711-1.726 1.1485-3.453 0-5.184-.789-3.023.1407-3.023 2.8791 0 .285 1.582 1.078 2.95 2.301 4.032 1.293.789 2.66.718 4.031.574-3.309-5.758-6.551-8.492-9.7892-10.367-4.6797-3.094-6.3359-6.91-7.4844-10.942-2.5195-15.117-5.039-30.238-7.4843-45.359 2.8047-1.582 4.8203-4.246 6.3359-7.484 3.8125-6.911 7.6289-13.032 11.52-19.942 6.839-3.887 10.652-9.933 11.015-16.414 1.438-2.66 3.024-6.406 2.301-9.863-.504-.645-2.879.719-4.102.359-.429-.429-.14-1.797.215-1.797 1.653-.789 3.742 0 4.965-3.023.141-1.727 1.008-3.453 1.223-5.184 2.59-12.382 6.765-13.031 7.988-20.156-1.582-.574-3.672-.574-2.879-3.453.789-3.887 2.156-4.461 3.453-5.184-.359 3.309-2.23 7.414 3.453 7.485-5.039 9-9.359 19.582-9.429 28.222 8.925-.933 19.652-.285 27.863 4.032 9.285 6.695 19.652 12.957 36.863 11.015 3.238-.215 7.344.215 10.582 0-.574-2.156-4.031-5.254-8.566-6.98-.504-1.438-1.727-2.52 4.246-1.727 5.039 2.879 6.551 5.039 9.359 7.918.934-.14 2.086-.215 3.024-.359-3.168-2.156-2.59-3.742-3.168-5.828 1.148-1.008 2.301-1.797 3.453-.575.504 1.512 1.148 3.887 2.879 5.469.863-1.511 1.078-3.308.574-5.254 1.223-.863 2.156-.574 2.879-.07.863 1.871.285 3.598-.215 5.469 6.336-1.512 13.102-3.453 19.438-9.36 4.82-3.168 9.429-6.117 14.183-6.621 5.903-1.652 11.52-1.511 16.125 5.184 2.735 7.848 5.828 14.902 7.485 24.765-.36 3.024-2.157 6.407 3.453 8.063.285 2.086-.934 5.184-2.879 8.637-.719-1.727-1.653-2.95-4.606-1.149-2.3 1.149-4.605 2.301-6.91 3.453-.933 4.536-.644 8.207 2.301 9.789 2.734-2.445 5.543-4.605 8.637-5.183 1.437-2.949 2.879-5.973 5.183-5.758 3.453-5.828 5.399-11.805 2.301-18.43-2.52-6.261-4.894-12.527-9.215-17.855-.359-8.063-1.726-15.047-5.183-19.582-3.168-4.68-8.637-7.344-14.829-2.879-7.703 3.023-14.324 5.973-23.757 8.062-4.821.43-10.512.36-13.75-4.316-1.368-3.812-1.582-7.988-2.95-11.805 2.52 6.118 5.614 12.239 9.79 13.536 8.855.429 16.703-2.231 24.191-5.758.285-8.207-.645-17.278-3.453-25.989 1.148.36 2.301-.07 3.453.36 2.23-2.446-1.512-11.446-3.453-18.43 1.222-.285 2.66-.14 2.879-2.301-1.727-3.957-3.239-8.711-4.606-14.398-.07-1.293 0-2.59 1.149-3.453 2.949-.285 3.168-1.727 1.726-4.606-4.605-5.324-4.535-10.008-3.527-14.398-.719-3.957-2.879-7.414-4.535-10.942.789-2.085.07-3.382.863-5.542 5.687 1.941 14.184 1.007 21.598.359 2.3.789 4.605 2.519 6.91 3.238 2.66-.644 4.246-2.519-2.301-4.965-.863-.644-2.949-.933-5.184-1.148-1.078-.934-.718-1.797 1.149-3.168 2.519-.359 8.637 4.031 11.086 4.031 3.094-.14 4.176-3.887.933-8.351.215.504.286 1.007.286 1.582 0 2.23-1.727 4.101-3.957 4.101-2.157 0-3.957-1.871-3.957-4.101 0-2.301 1.796-4.102 3.957-4.102.718 0 1.437.141 2.015.504-.719-.719-1.582-1.438-2.59-2.23-7.414-3.383-13.031-5.758-19.726-10.512.285 2.804-.43 5.398-1.367 7.703-1.223.644-1.438 1.293-1.368 3.023-.644 1.223-2.086 1.293-2.804-.359-.43-1.871-.141-2.086.429-2.59-.429-.933-1.222-1.726-2.519-2.23-3.598-.071-5.688-1.078-6.336-2.879.359-1.149 4.535-2.301 9.215-3.453 3.023-1.368 1.797-2.661 0-4.032-3.598-.214-7.125-.789-10.367-4.031-1.149-.789-2.95-1.223-4.965-1.512-.789-.07-3.453.864-3.528 0-.14-1.511.504-2.445-2.734-2.445-.359-.07-1.512 0-2.086-.215-1.008-.644.07-2.23-1.652-3.308zm12.742 42.121c1.078-.359 2.735-.14 5.039-1.582-.14-.214 5.829-2.734 11.086-1.293.36-.644 0-1.582-.504-2.23-2.375-.285-3.742-1.223-4.46-1.797.285-.504-2.59-.863-10.368 3.383-2.804-.789-5.543-2.016-6.695-3.383-1.293-.285-2.301.359-3.023 1.871.574 1.223 1.941 1.871 2.519 2.445.719.79 5.324 2.735 6.406 2.59zm-.215.649c-2.374-.719-4.535-1.367-6.406-2.805-.789-.215-2.519 1.653-1.222 3.168 1.941 1.293 3.671 2.016 6.191 1.797 1.008-.215 1.652-1.582 1.437-2.156zm-25.921 219.816c2.879 2.52 7.414 9.645 7.269 10.078-.215 1.653.141 3.168 2.375 4.461h7.125c-1.652-6.406-3.887-11.519-6.551-15.765.36-.934.934-1.582 1.797-2.016-2.301-2.016-2.519-4.031-3.168-6.117.141-9.719.285-19.367.43-29.156 2.805-5.184 4.605-12.024 4.316-22.461 2.157-4.176 4.032-10.149 5.688-16.989 2.23-5.183 3.957-10.511 4.535-16.199-6.91 2.086-13.75 3.742-20.66 4.75 1.008 9.285 3.383 17.278-1.223 31.606-2.445 6.406-1.148 10.148.574 13.39-.285 12.024-.644 23.903-.933 35.856-.863.933-1.727 2.66-2.59 5.109-.07 2.086.359 3.024 1.008 3.453zm7.707 8.422c-1.078-.359-4.606-5.254-5.973-8.207-.359-1.652-.43-3.453 1.223-5.613.789 3.597 2.375 5.398 4.75 5.324-.789 1.652-1.223 3.238 1.148 4.316.645 1.368.285 2.805-1.148 4.176zm-116.3558-7.344c-.3594-2.086.4297-2.3 2.3008-.574 1.0781 3.168 2.8047 5.469 5.1836 6.91.3593 1.871-.6446 2.52-3.0235 2.016-1.7969-1.941-4.5351-5.254-4.4609-8.352M208.074 209.808c4.176.286 8.063 1.149 11.231 3.024 1.293.285 1.941-.43 1.871-2.086-3.887-2.66-7.918-3.383-12.024-3.598-1.582.934-1.941 1.797-1.078 2.66m-41.258 56.95c-1.148 4.101-1.796 8.062.286 11.086.429 1.222-.071 1.797-1.653 1.726-2.086-2.375-2.734-6.476-1.148-13.176.789-.574 1.652-.863 2.519.36zm-120.1676 4.394c-.6445 1.942-1.9414 3.168-4.0312 4.246-.504 0-1.4375 0-2.5196-.863-1.3672-.863-1.3672-2.156-1.8711-3.238.1407-1.367.7188-1.727 1.7969-1.008-.0703.644.2852 1.223 1.0781 1.652.7188.43 1.4375.36 2.1563-.359.5742-.645.9336-1.223 1.2226-1.871 1.293.07 2.0157.504 2.1563 1.437zM72.57 261.144c-1.148 4.102-2.59 7.989-4.679 11.52-.071 1.941.933 1.582 1.726 1.652 2.231-3.308 3.887-7.343 5.254-11.804-.215-1.149-.934-1.653-2.301-1.368m-23.1833 2.664c.4297.43.3594 1.368-.2852 1.942-.6445.644-1.5117.719-2.0156.215s-.3594-1.367.2852-2.016c.5742-.574 1.5117-.644 2.0156-.141m8.7851-27.503c-1.582-4.75-2.2304-9.719-1.1484-15.262-.2148-1.367-.6445-1.942-1.4375-1.797-1.8711 4.82-2.1562 10.078 0 16.055.7188 1.652 1.582 1.941 2.5899 1.007zm90.9332-27.504c-.359 2.445.36 4.39 2.086 5.687.934.215 1.582-.285 1.942-1.512-1.438-1.222-2.156-2.66-2.375-4.175-.574-.575-1.078-.575-1.653 0m-5.976-37.586c.215-1.008.933-1.293 2.015-.864 1.149 2.231 2.157 4.606 2.446 7.704.359 4.82.574 9.644-1.078 15.621 1.222 2.519 2.086 5.543 2.445 9-.863.718-1.797.644-2.66-.071-.215-2.519-.863-4.39-1.871-5.687-.719-1.942-.864-4.246.429-7.055 1.008-4.39.504-8.062.286-11.805.14-3.093-1.008-4.964-2.016-6.839zm-53.567 34.199c5.325-1.078 10.797-1.223 16.918 1.727 3.598 1.796 7.485 2.804 10.149 7.628 1.871 1.942 4.101 3.094 7.199 2.661.719 1.007.574 2.015-.43 3.023-2.949-.141-5.543-1.148-7.628-3.383-2.661-3.672-6.551-5.543-10.368-7.414-5.254-2.086-10.511-2.015-15.84-1.726-1.148-.864-1.148-1.653 0-2.52zm75.094-46.512c.934 0 1.797.645 1.797 1.438 0 .789-.863 1.511-1.797 1.511-1.008 0-1.797-.718-1.797-1.511 0-.789.789-1.438 1.797-1.438m8.211-2.519c.934.718 1.293 1.871.789 2.519-.504.645-1.652.504-2.66-.215-.934-.789-1.293-1.941-.789-2.519.504-.645 1.652-.574 2.66.215m-5.258 8.136c6.911 5.325 11.157 12.024 12.528 20.157.718.863 1.726.359 2.734-.285-1.871-9.79-6.98-16.055-12.957-21.454-1.367.071-2.086.645-2.301 1.582zm7.2-3.097c5.613 5.543 11.3 16.269 13.964 24.191.934.863 1.871.645 2.805-.43-3.094-7.988-8.926-19.148-14.324-25.628-1.727-.215-2.231.863-2.445 1.871zm16.992 29.519c.863 0 1.582 1.008 1.582 2.231 0 1.222-.719 2.23-1.582 2.23-.864 0-1.582-1.008-1.582-2.23 0-1.223.718-2.231 1.582-2.231m-5.469-2.086c.863 0 1.582.864 1.582 1.942 0 1.008-.719 1.871-1.582 1.871s-1.582-.863-1.582-1.871c0-1.078.719-1.942 1.582-1.942m-7.922-79.922c1.008-1.437 1.942-1.582 2.949-.429.575 4.39-.285 9.789 3.743 11.804.933.934.429 3.598 0 5.399-.719.504-1.438.504-2.086 0-.215-1.512.504-4.176-.43-4.68-3.887-2.445-3.309-7.773-4.176-12.094m5.688 21.532c.359 2.086.504 4.176 0 6.261.933.789 1.871.864 2.804.215.575-2.156.215-4.316-.07-6.476-.789-.789-1.652-.789-2.734 0M58.9609 172.941c-1.582 3.957-5.8281 8.352-10.582 10.582-3.2383 1.078-4.6797.36-4.3907-2.086 1.2227-1.941.504-3.023-2.1562-3.382-3.4531 1.941-4.3164-1.293-5.6875-3.528 1.6523.285 2.5898-.359 2.6602-2.015-2.4454-1.149-2.3008-1.942.4296-2.446 6.4063 2.735 12.7422 2.735 19.7266 2.879zM179.562 330.406c.934 1.871 1.872 3.672 2.805 5.543-1.078 1.367-2.156 1.438-3.168.215-.504-1.652-1.293-3.309-2.375-4.965.934-1.582 1.871-1.871 2.735-.789zM82.723 219.168c3.238-.215 6.839-.504 10.652-.215.359 11.23-2.231 18-4.75 23.902-7.055 11.016-10.871 21.239-13.316 31.102-.645 2.23-1.368 4.894.863 10.008 3.742 9 7.558 18 14.183 27.574 2.805 3.309 4.176 6.621 4.102 10.008 1.223 3.308 2.445 6.621 3.672 10.008 1.293 1.871 2.375 3.812 2.445 6.261-1.941-.504-4.101-.429-6.551.215 0-1.726-.285-3.742-.863-6.047-2.23-1.511-2.156-2.519.215-2.879.719-1.222.863-2.445.43-3.672-1.871-3.093-4.75-5.687-7.848-8.277-2.734 0-3.957-2.015-4.965-4.316-2.949-8.063-9.14-19.438-21.3084-37.367 3.2382-4.68 5.6874-10.223 7.8474-16.055.789-3.168 1.008-6.406.645-9.574 6.621-7.485 12.023-16.774 14.543-30.672zm15.191 106.918c2.445 3.527 4.82 7.125 7.199 10.652 1.582 1.727 3.672 1.008 3.239-.43-.719-5.039-4.536-6.91-8.208-9.574-.718 0-1.511-.644-2.23-.644zm131.473-55.942c-3.453 1.942-3.024 2.016-4.391 3.743.285.933.43 1.007 1.293 1.511 2.156-1.293 2.59-2.015 3.813-4.031.285-1.008-.286-.359-.719-1.223zM223.41 91.656c1.512 0 2.301.863 2.301 2.086s-.645 1.582-2.086 1.582c-1.438 0-2.016-.215-2.016-1.512 0-1.222.36-2.156 1.797-2.156zm-29.09-10.512 6.117-2.086c.575 1.293.504 2.375-.214 3.168l-5.903-1.078" style="stroke:none;fill-rule:evenodd;fill:#ec2a32"/>
</svg>